# NEON APOCALYPSE modular production mesh
v -2.00000 0.00000 -1.50000
v 2.00000 0.00000 -1.50000
v 2.00000 3.00000 -1.50000
v -2.00000 3.00000 -1.50000
v -2.00000 0.00000 1.50000
v 2.00000 0.00000 1.50000
v 2.00000 3.00000 1.50000
v -2.00000 3.00000 1.50000
v -2.20000 3.05000 -1.65000
v 2.20000 3.05000 -1.65000
v 2.20000 3.35000 -1.65000
v -2.20000 3.35000 -1.65000
v -2.20000 3.05000 1.65000
v 2.20000 3.05000 1.65000
v 2.20000 3.35000 1.65000
v -2.20000 3.35000 1.65000
v -1.55000 1.60000 1.50000
v 1.55000 1.60000 1.50000
v 1.55000 2.60000 1.50000
v -1.55000 2.60000 1.50000
v -1.55000 1.60000 1.62000
v 1.55000 1.60000 1.62000
v 1.55000 2.60000 1.62000
v -1.55000 2.60000 1.62000
f 1 2 3 4
f 5 8 7 6
f 1 5 6 2
f 2 6 7 3
f 3 7 8 4
f 5 1 4 8
f 9 10 11 12
f 13 16 15 14
f 9 13 14 10
f 10 14 15 11
f 11 15 16 12
f 13 9 12 16
f 17 18 19 20
f 21 24 23 22
f 17 21 22 18
f 18 22 23 19
f 19 23 24 20
f 21 17 20 24
