# NEON APOCALYPSE modular production mesh
v -0.11000 0.00000 -0.11000
v 0.11000 0.00000 -0.11000
v 0.11000 8.40000 -0.11000
v -0.11000 8.40000 -0.11000
v -0.11000 0.00000 0.11000
v 0.11000 0.00000 0.11000
v 0.11000 8.40000 0.11000
v -0.11000 8.40000 0.11000
v 0.00000 8.06000 -0.09000
v 2.00000 8.06000 -0.09000
v 2.00000 8.24000 -0.09000
v 0.00000 8.24000 -0.09000
v 0.00000 8.06000 0.09000
v 2.00000 8.06000 0.09000
v 2.00000 8.24000 0.09000
v 0.00000 8.24000 0.09000
v 1.74000 7.30000 -0.11000
v 1.96000 7.30000 -0.11000
v 1.96000 8.20000 -0.11000
v 1.74000 8.20000 -0.11000
v 1.74000 7.30000 0.11000
v 1.96000 7.30000 0.11000
v 1.96000 8.20000 0.11000
v 1.74000 8.20000 0.11000
v 1.52500 7.16000 -0.32500
v 2.17500 7.16000 -0.32500
v 2.17500 7.34000 -0.32500
v 1.52500 7.34000 -0.32500
v 1.52500 7.16000 0.32500
v 2.17500 7.16000 0.32500
v 2.17500 7.34000 0.32500
v 1.52500 7.34000 0.32500
f 1 2 3 4
f 5 8 7 6
f 1 5 6 2
f 2 6 7 3
f 3 7 8 4
f 5 1 4 8
f 9 10 11 12
f 13 16 15 14
f 9 13 14 10
f 10 14 15 11
f 11 15 16 12
f 13 9 12 16
f 17 18 19 20
f 21 24 23 22
f 17 21 22 18
f 18 22 23 19
f 19 23 24 20
f 21 17 20 24
f 25 26 27 28
f 29 32 31 30
f 25 29 30 26
f 26 30 31 27
f 27 31 32 28
f 29 25 28 32
